{"title":"Silver Linings Playbook 2012 1080p BluRay DTS x264 - alrmothe","uid":8340440,"size":7465563936,"categoryP":"video","categoryS":"hd___movies","magnet":"?xt=urn:btih:179389bffe2e0ff2bb3e9d41d04693a4b952f656&amp;dn=Silver+Linings+Playbook+2012+1080p+BluRay+DTS+x264+-+alrmothe&amp;tr=udp%3A%2F%2Ftracker.openbittorrent.com%3A80&amp;tr=udp%3A%2F%2Fopen.demonii.com%3A1337&amp;tr=udp%3A%2F%2Ftracker.coppersurfer.tk%3A6969&amp;tr=udp%3A%2F%2Fexodus.desync.com%3A6969","seeders":0,"leechers":3,"uploader":".alrmothe","files":35,"time":1365088149,"description":"*********************************************************************\n\nSilver Linings Playbook 2012 1080p BluRay DTS x264 - alrmothe\n\n*********************************************************************\n\nTiTLE : Silver Linings Playbook \nYEAR: 2012\nGENRE :  Comedy | Drama | Romance  \nimdb URL :http://www.imdb.com/title/tt1045658/\nFormat: Matroska\nOverall bit rate: 8133 Kbps\nFormat version: Version 4 / Version 2\nFile size:  6.94 GiB\nDuration:  2h 2mn\nSub:Arabic,English,,italian,portuguese\nRomanian,spanish\n \n*********************************************************************\n\nVideo\nFormat : AVC \nFormat/Info : Advanced Video Codec \nFormat profile : &lt;a class=&quot;__cf_email__&quot; href=&quot;/cdn-cgi/l/email-protection&quot; data-cfemail=&quot;327a5b555a727e061c03&quot;&gt;[email&amp;#160;protected]&lt;/a&gt;&lt;script cf-hash='f9e31' type=&quot;text/javascript&quot;&gt;\n/* &lt;![CDATA[ */!function(){try{var t=&quot;currentScript&quot;in document?document.currentScript:function(){for(var t=document.getElementsByTagName(&quot;script&quot;),e=t.length;e--;)if(t[e].getAttribute(&quot;cf-hash&quot;))return t[e]}();if(t&amp;&amp;t.previousSibling){var e,r,n,i,c=t.previousSibling,a=c.getAttribute(&quot;data-cfemail&quot;);if(a){for(e=&quot;&quot;,r=parseInt(a.substr(0,2),16),n=2;a.length-n;n+=2)i=parseInt(a.substr(n,2),16)^r,e+=String.fromCharCode(i);e=document.createTextNode(e),c.parentNode.replaceChild(e,c)}}}catch(u){}}();/* ]]&gt; */&lt;/script&gt; \nFormat settings, CABAC : Yes \nFormat settings, ReFrames : 7 frames  \nCodec ID : V_MPEG4/ISO/AVC  \nBit rate : 6624 Kbps \nWidth : 1920 pixels \nHeight : 800 pixels \nDisplay aspect ratio : 16:9 \nFrame rate : 23.976 fps \nColor space : YUV \nChroma subsampling : 4:2:0 \nBit depth : 8 bits \nScan type : Progressive \nBits/(Pixel*Frame) : 0.180 \nStream size: 5.51 GiB (79%)\nTitle: Silver Linings Playbook 2012 1080p BluRay DTS x264 - alrmothe\n\n\nAudio \nFormat: DTS\nFormat/Info: Digital Theater Systems\nMode: 16\nFormat settings, Endianness: Big\nCodec ID: A_DTS\nBit rate mode: Constant\nBit rate : 1509 Kbps\nChannel(s) : 6 channels\nChannel positions:Front: L C R, Side: L R, LFE\nSampling rate: 48.0 KHz\nBit depth: 24 bits\nCompression mode: Lossy\nStream size: 1.29 GiB (19%)\nLanguage : English\n\n\n\n\n*********************************************************************\n\n\nScreenshots &lt;a href=&quot;\nhttp://img542.imageshack.us/img542/1809/vlcsnap2013040415h16m51.png&quot; rel=&quot;nofollow&quot; target=&quot;_NEW&quot;&gt;\nhttp://img542.imageshack.us/img542/1809/vlcsnap2013040415h16m51.png&lt;/a&gt; &lt;a href=&quot;\nhttp://img801.imageshack.us/img801/5598/vlcsnap2013040415h17m21.png&quot; rel=&quot;nofollow&quot; target=&quot;_NEW&quot;&gt;\nhttp://img801.imageshack.us/img801/5598/vlcsnap2013040415h17m21.png&lt;/a&gt; &lt;a href=&quot;\nhttp://img251.imageshack.us/img251/1918/vlcsnap2013040415h18m47.png&quot; rel=&quot;nofollow&quot; target=&quot;_NEW&quot;&gt;\nhttp://img251.imageshack.us/img251/1918/vlcsnap2013040415h18m47.png&lt;/a&gt; &lt;a href=&quot;\nhttp://img27.imageshack.us/img27/7581/vlcsnap2013040315h14m27.png&quot; rel=&quot;nofollow&quot; target=&quot;_NEW&quot;&gt;\nhttp://img27.imageshack.us/img27/7581/vlcsnap2013040315h14m27.png&lt;/a&gt; &lt;a href=&quot;\nhttp://img820.imageshack.us/img820/4835/vlcsnap2013040315h16m37.png&quot; rel=&quot;nofollow&quot; target=&quot;_NEW&quot;&gt;\nhttp://img820.imageshack.us/img820/4835/vlcsnap2013040315h16m37.png&lt;/a&gt; &lt;a href=&quot;\nhttp://img201.imageshack.us/img201/31/vlcsnap2013040315h17m12.png&quot; rel=&quot;nofollow&quot; target=&quot;_NEW&quot;&gt;\nhttp://img201.imageshack.us/img201/31/vlcsnap2013040315h17m12.png&lt;/a&gt; &lt;a href=&quot;\nhttp://img534.imageshack.us/img534/6932/vlcsnap2013040315h17m43.png&quot; rel=&quot;nofollow&quot; target=&quot;_NEW&quot;&gt;\nhttp://img534.imageshack.us/img534/6932/vlcsnap2013040315h17m43.png&lt;/a&gt; &lt;a href=&quot;\nhttp://img541.imageshack.us/img541/356/vlcsnap2013040315h19m11.png&quot; rel=&quot;nofollow&quot; target=&quot;_NEW&quot;&gt;\nhttp://img541.imageshack.us/img541/356/vlcsnap2013040315h19m11.png&lt;/a&gt; &lt;a href=&quot;\nhttp://img829.imageshack.us/img829/9146/vlcsnap2013040315h21m29.png&quot; rel=&quot;nofollow&quot; target=&quot;_NEW&quot;&gt;\nhttp://img829.imageshack.us/img829/9146/vlcsnap2013040315h21m29.png&lt;/a&gt; &lt;a href=&quot;\nhttp://img40.imageshack.us/img40/5636/vlcsnap2013040315h22m10.png&quot; rel=&quot;nofollow&quot; target=&quot;_NEW&quot;&gt;\nhttp://img40.imageshack.us/img40/5636/vlcsnap2013040315h22m10.png&lt;/a&gt; &lt;a href=&quot;\nhttp://img20.imageshack.us/img20/5927/vlcsnap2013040315h23m50.png&quot; rel=&quot;nofollow&quot; target=&quot;_NEW&quot;&gt;\nhttp://img20.imageshack.us/img20/5927/vlcsnap2013040315h23m50.png&lt;/a&gt;\n","torrent":{"xt":"urn:btih:179389bffe2e0ff2bb3e9d41d04693a4b952f656","amp;dn":"Silver+Linings+Playbook+2012+1080p+BluRay+DTS+x264+-+alrmothe","amp;tr":["udp%3A%2F%2Ftracker.openbittorrent.com%3A80","udp%3A%2F%2Fopen.demonii.com%3A1337","udp%3A%2F%2Ftracker.coppersurfer.tk%3A6969","udp%3A%2F%2Fexodus.desync.com%3A6969"],"infoHash":"179389bffe2e0ff2bb3e9d41d04693a4b952f656","infoHashBuffer":{"type":"Buffer","data":[23,147,137,191,254,46,15,242,187,62,157,65,208,70,147,164,185,82,246,86]},"announce":[],"urlList":[]}}